<svg width="187" height="360" viewBox="0 0 187 360" fill="none" xmlns="http://www.w3.org/2000/svg">
<path d="M0 273.828C0 269.23 3.13557 265.225 7.59921 264.121L93 243L179.377 264.135C183.852 265.23 187 269.241 187 273.848V290C187 328.66 155.66 360 117 360H70C31.3401 360 0 328.66 0 290V273.828Z" fill="#656D4A"/>
<ellipse cx="93.5" cy="156" rx="88.5" ry="99" fill="#CABEBE"/>
<ellipse cx="94.5" cy="45.5" rx="55.5" ry="45.5" fill="#A3B18A"/>
<ellipse cx="70.3228" cy="118.039" rx="68.8755" ry="31.06" transform="rotate(-19.7805 70.3228 118.039)" fill="#A3B18A"/>
<ellipse cx="148.9" cy="112.459" rx="41.0674" ry="21.1157" transform="rotate(46.6937 148.9 112.459)" fill="#A3B18A"/>
<path d="M179.655 140.15C180.568 129.957 179.126 119.708 175.415 110.013C171.705 100.317 165.803 91.3744 158.059 83.7162C150.316 76.058 140.89 69.8412 130.343 65.436C119.796 61.0309 108.344 58.5274 96.6675 58.0747C84.9914 57.622 73.3306 59.2294 62.3794 62.8011C51.4282 66.3727 41.4106 71.8357 32.9231 78.8646C24.4357 85.8935 17.6519 94.3447 12.9759 103.715C8.29978 113.085 5.82699 123.182 5.70476 133.406L36.7809 133.69C36.8595 127.114 38.4501 120.619 41.4579 114.592C44.4658 108.565 48.8293 103.129 54.2888 98.6072C59.7482 94.086 66.1919 90.572 73.2361 88.2746C80.2803 85.9771 87.781 84.9432 95.2915 85.2344C102.802 85.5256 110.169 87.1359 116.953 89.9695C123.737 92.8031 129.8 96.8019 134.781 101.728C139.762 106.654 143.559 112.406 145.945 118.643C148.332 124.879 149.259 131.472 148.672 138.028L179.655 140.15Z" fill="#A3B18A"/>
<path d="M145 69C145 72.866 121.719 76 93 76C64.2812 76 41 72.866 41 69C41 65.134 64.2812 62 93 62C121.719 62 145 65.134 145 69Z" fill="#656D4A"/>
<path d="M121.824 158.5H155.843C162.747 158.5 168.343 164.096 168.343 171V191C168.343 200.665 160.508 208.5 150.843 208.5H131.824C116.636 208.5 104.324 196.188 104.324 181V176C104.324 166.335 112.159 158.5 121.824 158.5Z" stroke="#1E1E1E" stroke-width="5"/>
<path d="M32.7059 158.5H66.7254C76.3904 158.5 84.2254 166.335 84.2254 176V181C84.2254 196.188 71.9132 208.5 56.7254 208.5H37.7059C28.0409 208.5 20.2059 200.665 20.2059 191V171C20.2059 164.096 25.8023 158.5 32.7059 158.5Z" stroke="#1E1E1E" stroke-width="5"/>
<path d="M107.216 165.356C97.9505 160.248 92.7555 159.897 83.4902 165.356" stroke="#1E1E1E" stroke-width="4"/>
<path d="M165.837 167.025C164.491 166.279 164.457 164.355 165.777 163.562L171.046 160.396C172.366 159.603 174.049 160.536 174.076 162.075L174.183 168.221C174.21 169.761 172.56 170.752 171.214 170.005L165.837 167.025Z" fill="#1E1E1E"/>
<path d="M14.5449 162.887C14.6255 161.349 16.3402 160.475 17.6315 161.314L22.7868 164.662C24.0781 165.5 23.9773 167.422 22.6055 168.121L17.1285 170.912C15.7567 171.611 14.1426 170.563 14.2232 169.025L14.5449 162.887Z" fill="#1E1E1E"/>
</svg>
